<?xml version="1.0" standalone="no"?>
<!DOCTYPE svg PUBLIC "-//W3C//DTD SVG 20010904//EN"
 "http://www.w3.org/TR/2001/REC-SVG-20010904/DTD/svg10.dtd">
<svg version="1.0" xmlns="http://www.w3.org/2000/svg"
 width="512.000000pt" height="512.000000pt" viewBox="0 0 512.000000 512.000000"
 preserveAspectRatio="xMidYMid meet">

<g transform="translate(0.000000,512.000000) scale(0.100000,-0.100000)"
fill="currentColor" stroke="none">
<path d="M1650 4949 c-29 -12 -67 -45 -83 -74 -7 -12 -14 -86 -17 -180 l-5
-160 -315 -6 c-256 -5 -326 -9 -374 -23 -287 -85 -499 -305 -566 -590 -20 -82
-20 -117 -18 -1598 l3 -1513 33 -95 c75 -216 218 -377 417 -471 172 -80 11
-74 1835 -74 l1625 0 79 23 c158 46 317 150 411 270 55 70 115 183 147 277
l23 70 3 1513 c2 1474 2 1516 -17 1596 -71 299 -296 525 -594 596 -66 16 -118
20 -264 20 l-182 0 -3 -312 c-3 -295 -4 -315 -24 -348 -43 -74 -132 -101 -210
-64 l-34 16 23 32 c22 31 22 32 25 512 l3 480 -23 34 c-53 77 -139 101 -212
58 -71 -41 -81 -70 -84 -250 l-4 -158 -583 0 -584 0 -3 -319 c-3 -306 -4 -321
-24 -348 -35 -46 -82 -73 -131 -73 -38 0 -103 22 -103 35 0 2 10 21 23 42 22
38 22 39 22 508 l0 470 -24 38 c-39 64 -124 93 -191 66z m2880 -2988 c0 -1044
-1 -1081 -20 -1142 -50 -162 -176 -279 -346 -324 -51 -13 -259 -15 -1604 -15
-1345 0 -1553 2 -1604 15 -170 45 -296 162 -346 324 -19 61 -20 98 -20 1142
l0 1079 1970 0 1970 0 0 -1079z"/>
</g>
</svg>
